<svg 
 xmlns="http://www.w3.org/2000/svg"
 xmlns:xlink="http://www.w3.org/1999/xlink"
 width="1852px" height="928px">
<path fill-rule="evenodd"  fill="rgb(242, 206, 148)"
 d="M109.931,668.920 C43.876,580.051 0.452,472.110 -0.004,361.396 C-0.462,250.684 45.185,137.958 131.164,68.102 C217.143,-1.754 343.996,-22.397 442.897,27.490 C554.303,83.684 612.295,211.621 717.323,278.968 C798.777,331.198 900.564,341.542 997.143,335.061 C1041.154,332.108 1085.196,325.972 1129.201,328.990 C1173.205,332.007 1218.259,345.258 1250.085,375.765 C1285.273,409.493 1299.894,460.868 1296.517,509.481 C1289.421,611.631 1215.721,719.971 1123.904,764.537 C943.448,852.125 773.669,944.594 566.439,925.482 C386.319,908.872 217.746,813.973 109.931,668.920 Z"/>
<path fill-rule="evenodd"  fill="rgb(255, 255, 255)"
 d="M876.110,371.229 C886.655,375.590 897.420,380.548 907.205,387.763 C912.061,391.358 916.583,395.640 920.285,400.495 C924.026,405.308 926.856,410.589 929.086,415.892 C932.903,425.113 934.309,433.095 935.262,439.155 C936.095,445.250 936.159,449.571 935.772,451.922 C934.933,456.669 932.381,453.333 927.849,440.648 C926.530,436.967 924.702,431.677 922.575,426.958 C919.578,420.032 915.783,413.493 911.059,408.003 C906.380,402.521 900.478,398.072 894.149,394.181 C888.321,390.617 881.908,387.596 875.213,384.947 C871.896,383.573 868.584,382.173 865.161,381.005 C861.761,379.788 858.372,378.530 854.886,377.492 C841.048,373.071 826.738,369.683 812.192,366.643 C780.365,360.053 747.671,354.725 715.663,344.964 C676.258,332.761 639.358,313.563 606.492,288.623 C588.608,275.021 572.007,258.540 557.473,240.890 C544.350,225.066 532.654,207.790 522.640,190.129 C512.510,172.532 503.299,154.819 492.812,138.277 C487.752,130.280 482.395,122.578 476.623,115.351 C470.905,108.182 464.598,101.506 457.792,95.490 C444.193,83.477 428.502,74.057 411.478,69.486 C406.347,67.946 399.453,67.296 396.108,66.623 C391.789,65.756 388.257,64.890 388.011,63.931 C387.927,63.604 389.231,63.118 391.157,62.575 C392.119,62.304 393.236,62.020 394.407,61.746 C395.579,61.513 396.808,61.409 397.981,61.281 C402.857,60.585 409.686,61.306 415.600,62.449 C431.389,65.880 446.050,73.308 458.836,82.881 C465.239,87.679 471.243,92.983 476.839,98.684 C482.444,104.387 487.509,110.591 492.261,116.932 C511.299,142.442 524.822,171.024 541.420,197.094 C554.424,217.587 569.861,236.408 587.049,253.426 C604.428,270.234 623.451,285.362 644.077,297.895 C664.575,310.631 686.608,320.743 709.361,328.507 C732.236,336.064 755.989,341.214 780.013,346.059 C811.953,352.654 844.643,359.036 876.110,371.229 Z"/>
<path fill-rule="evenodd"  fill="rgb(114, 135, 174)"
 d="M405.000,233.756 C405.000,233.756 655.407,423.116 1009.000,362.779 C1302.197,312.748 1527.484,80.385 1852.000,270.763 L1852.000,806.000 L413.000,806.000 L405.000,233.756 Z"/>
</svg>