<svg 
 xmlns="http://www.w3.org/2000/svg"
 xmlns:xlink="http://www.w3.org/1999/xlink"
 width="1888px" height="1640px">
<path fill-rule="evenodd"  fill="rgb(242, 206, 148)"
 d="M1772.955,929.077 C1842.555,1024.131 1887.938,1139.307 1887.595,1257.112 C1887.252,1374.917 1837.853,1494.517 1745.872,1568.202 C1653.891,1641.888 1518.799,1662.903 1413.968,1609.082 C1295.884,1548.457 1235.155,1411.894 1123.938,1339.450 C1037.684,1283.266 929.487,1271.498 826.705,1277.671 C779.868,1280.484 732.973,1286.683 686.187,1283.143 C639.401,1279.603 591.575,1265.167 557.949,1232.469 C520.771,1196.317 505.603,1141.544 509.560,1089.844 C517.873,981.207 597.080,866.482 695.082,819.751 C887.694,727.905 1068.985,630.787 1289.277,652.673 C1480.751,671.695 1659.356,773.931 1772.955,929.077 Z"/>
<path fill-rule="evenodd"  fill="rgb(255, 255, 255)"
 d="M967.027,1233.070 C955.520,1227.827 943.793,1221.914 933.240,1213.541 C928.004,1209.370 923.164,1204.452 919.255,1198.932 C915.302,1193.456 912.375,1187.499 910.115,1181.541 C906.251,1171.183 905.007,1162.292 904.191,1155.546 C903.508,1148.766 903.608,1143.980 904.129,1141.393 C905.245,1136.171 907.940,1139.965 912.459,1154.186 C913.775,1158.313 915.592,1164.240 917.761,1169.548 C920.808,1177.333 924.754,1184.721 929.769,1190.984 C934.735,1197.237 941.097,1202.395 947.953,1206.952 C954.267,1211.127 961.251,1214.724 968.561,1217.920 C972.180,1219.572 975.794,1221.253 979.538,1222.681 C983.256,1224.163 986.960,1225.688 990.780,1226.974 C1005.932,1232.414 1021.647,1236.729 1037.637,1240.668 C1072.627,1249.219 1108.627,1256.406 1143.692,1268.474 C1186.853,1283.536 1226.964,1306.243 1262.382,1335.147 C1281.653,1350.909 1299.389,1369.808 1314.791,1389.920 C1328.701,1407.954 1340.975,1427.538 1351.369,1447.483 C1361.896,1467.363 1371.400,1487.333 1382.363,1506.058 C1387.652,1515.110 1393.281,1523.847 1399.389,1532.075 C1405.440,1540.236 1412.162,1547.875 1419.462,1554.803 C1434.051,1568.637 1451.058,1579.684 1469.732,1585.415 C1475.354,1587.323 1482.963,1588.314 1486.642,1589.191 C1491.391,1590.321 1495.269,1591.419 1495.503,1592.490 C1495.583,1592.855 1494.120,1593.342 1491.966,1593.868 C1490.889,1594.129 1489.641,1594.399 1488.333,1594.656 C1487.026,1594.868 1485.661,1594.935 1484.357,1595.031 C1478.930,1595.608 1471.394,1594.540 1464.890,1593.043 C1447.538,1588.621 1431.593,1579.821 1417.810,1568.720 C1410.907,1563.156 1404.466,1557.048 1398.493,1550.516 C1392.511,1543.982 1387.145,1536.914 1382.132,1529.708 C1362.051,1500.719 1348.200,1468.545 1330.844,1439.033 C1317.249,1415.835 1300.894,1394.392 1282.529,1374.876 C1263.943,1355.584 1243.470,1338.087 1221.120,1323.400 C1198.920,1308.494 1174.916,1296.431 1150.023,1286.939 C1124.985,1277.672 1098.882,1271.034 1072.465,1264.723 C1037.350,1256.162 1001.397,1247.809 967.027,1233.070 Z"/>
<path fill-rule="evenodd"  fill="rgb(114, 135, 174)"
 d="M1447.000,1391.243 C1447.000,1391.243 1196.593,1201.884 843.000,1262.221 C549.803,1312.252 324.516,1544.614 -0.000,1354.237 L-0.000,-0.000 L1439.000,-0.000 L1447.000,1391.243 Z"/>
</svg>