<svg 
 xmlns="http://www.w3.org/2000/svg"
 xmlns:xlink="http://www.w3.org/1999/xlink"
 width="179px" height="106px">
<path fill-rule="evenodd"  fill="rgb(255, 255, 255)"
 d="M174.603,73.603 C172.174,73.603 170.205,71.630 170.205,69.197 C170.205,66.763 172.174,64.791 174.603,64.791 C177.031,64.791 179.000,66.763 179.000,69.197 C179.000,71.630 177.031,73.603 174.603,73.603 ZM174.603,41.207 C172.174,41.207 170.205,39.234 170.205,36.801 C170.205,34.368 172.174,32.395 174.603,32.395 C177.031,32.395 179.000,34.368 179.000,36.801 C179.000,39.234 177.031,41.207 174.603,41.207 ZM174.603,8.811 C172.174,8.811 170.205,6.838 170.205,4.405 C170.205,1.972 172.174,-0.000 174.603,-0.000 C177.031,-0.000 179.000,1.972 179.000,4.405 C179.000,6.838 177.031,8.811 174.603,8.811 ZM132.051,105.998 C129.623,105.998 127.654,104.026 127.654,101.592 C127.654,99.159 129.623,97.187 132.051,97.187 C134.480,97.187 136.449,99.159 136.449,101.592 C136.449,104.026 134.480,105.998 132.051,105.998 ZM132.051,73.603 C129.623,73.603 127.654,71.630 127.654,69.197 C127.654,66.763 129.623,64.791 132.051,64.791 C134.480,64.791 136.449,66.763 136.449,69.197 C136.449,71.630 134.480,73.603 132.051,73.603 ZM132.051,41.207 C129.623,41.207 127.654,39.234 127.654,36.801 C127.654,34.368 129.623,32.395 132.051,32.395 C134.480,32.395 136.449,34.368 136.449,36.801 C136.449,39.234 134.480,41.207 132.051,41.207 ZM132.051,8.811 C129.623,8.811 127.654,6.838 127.654,4.405 C127.654,1.972 129.623,-0.000 132.051,-0.000 C134.480,-0.000 136.449,1.972 136.449,4.405 C136.449,6.838 134.480,8.811 132.051,8.811 ZM89.500,105.998 C87.071,105.998 85.103,104.026 85.103,101.592 C85.103,99.159 87.071,97.187 89.500,97.187 C91.928,97.187 93.897,99.159 93.897,101.592 C93.897,104.026 91.928,105.998 89.500,105.998 ZM89.500,73.603 C87.071,73.603 85.103,71.630 85.103,69.197 C85.103,66.763 87.071,64.791 89.500,64.791 C91.928,64.791 93.897,66.763 93.897,69.197 C93.897,71.630 91.928,73.603 89.500,73.603 ZM89.500,41.207 C87.071,41.207 85.103,39.234 85.103,36.801 C85.103,34.368 87.071,32.395 89.500,32.395 C91.928,32.395 93.897,34.368 93.897,36.801 C93.897,39.234 91.928,41.207 89.500,41.207 ZM89.500,8.811 C87.071,8.811 85.103,6.838 85.103,4.405 C85.103,1.972 87.071,-0.000 89.500,-0.000 C91.928,-0.000 93.897,1.972 93.897,4.405 C93.897,6.838 91.928,8.811 89.500,8.811 ZM46.949,105.998 C44.520,105.998 42.551,104.026 42.551,101.592 C42.551,99.159 44.520,97.187 46.949,97.187 C49.377,97.187 51.346,99.159 51.346,101.592 C51.346,104.026 49.377,105.998 46.949,105.998 ZM46.949,73.603 C44.520,73.603 42.551,71.630 42.551,69.197 C42.551,66.763 44.520,64.791 46.949,64.791 C49.377,64.791 51.346,66.763 51.346,69.197 C51.346,71.630 49.377,73.603 46.949,73.603 ZM46.949,41.207 C44.520,41.207 42.551,39.234 42.551,36.801 C42.551,34.368 44.520,32.395 46.949,32.395 C49.377,32.395 51.346,34.368 51.346,36.801 C51.346,39.234 49.377,41.207 46.949,41.207 ZM46.949,8.811 C44.520,8.811 42.551,6.838 42.551,4.405 C42.551,1.972 44.520,-0.000 46.949,-0.000 C49.377,-0.000 51.346,1.972 51.346,4.405 C51.346,6.838 49.377,8.811 46.949,8.811 ZM4.397,105.998 C1.969,105.998 -0.000,104.026 -0.000,101.592 C-0.000,99.159 1.969,97.187 4.397,97.187 C6.826,97.187 8.795,99.159 8.795,101.592 C8.795,104.026 6.826,105.998 4.397,105.998 ZM4.397,73.603 C1.969,73.603 -0.000,71.630 -0.000,69.197 C-0.000,66.763 1.969,64.791 4.397,64.791 C6.826,64.791 8.795,66.763 8.795,69.197 C8.795,71.630 6.826,73.603 4.397,73.603 ZM4.397,41.207 C1.969,41.207 -0.000,39.234 -0.000,36.801 C-0.000,34.368 1.969,32.395 4.397,32.395 C6.826,32.395 8.795,34.368 8.795,36.801 C8.795,39.234 6.826,41.207 4.397,41.207 ZM4.397,8.811 C1.969,8.811 -0.000,6.838 -0.000,4.405 C-0.000,1.972 1.969,-0.000 4.397,-0.000 C6.826,-0.000 8.795,1.972 8.795,4.405 C8.795,6.838 6.826,8.811 4.397,8.811 ZM174.603,97.187 C177.031,97.187 179.000,99.159 179.000,101.592 C179.000,104.026 177.031,105.998 174.603,105.998 C172.174,105.998 170.205,104.026 170.205,101.592 C170.205,99.159 172.174,97.187 174.603,97.187 Z"/>
</svg>